Patient4_TMGait_0pt3_01_right_21_EMG.mot
version=1
nRows=33
nColumns=33
inDegrees=no
endheader
time	1LAddLong	2LGlutMax	3LGlutMed	4LIliopsoas	5LSemiMemb	6LBicFemLong	7LRecFem	8LVastMed	9LVastLat	10LGasMed	11LTibAnt	12lTibPost	13LPeroneusLong	14LSol	15LExtDigLong	16LFlexDigLong	17RAddLong	18RGlutMax	19RGlutMed	20RIliopsoas	21RSemiMemb	22RBicFemLong	23RRecFem	24RVastMed	25RVastLat	26RGasMed	27RTibAnt	28RTibPost	29RPeroneusLong	30RSol	31RExtDigLong	32RFlexDigLong
40.378	-0.016327	0.03952	-0.040283	0.002441	-0.028839	0.40909	0.004578	-0.026093	0.27359	0.089111	0.004425	0.070038	0.20355	-0.04303	-0.11276	0.038147	0.010681	0.13092	-0.40329	0.021973	0.10727	0.016327	0.048218	0.019073	-0.026398	0.006866	-0.19791	0	0.21332	-0.031433	-0.00473	0.001678
40.379	-0.001068	0.07309	-0.043488	0.007935	-0.00824	0.37201	0.098267	-0.010681	0.077209	0.005341	-0.023041	0.010071	0.23743	-0.15335	-0.074005	0.002899	0.004578	0.14587	-0.31006	0.042572	0.10407	0.00412	0.062103	-0.052185	-0.031586	0.002136	0.14053	-0.005341	0.1799	0.007935	-0.004425	-0.003967
40.38	0.024109	0.071411	-0.10376	0.018311	-0.002441	0.44662	0.14084	0.001526	-0.22751	-0.031586	-0.024719	0.009918	0.083466	-0.45502	-0.090179	-0.005646	-0.003967	0.085144	-0.29709	-0.036011	0.091858	-0.010223	0.065002	-0.015259	-0.045471	0.001068	-0.40085	-0.00061	0.019989	-0.052795	-0.003052	-0.011292
40.381	0.02655	0.038147	-0.027008	0.006561	0.013733	-0.12482	0.12894	0.008087	-0.27298	-0.065002	0.001984	0.030823	-0.043488	-0.5925	0.009766	0.001221	-0.023499	0.15076	-0.23148	-0.011597	0.088348	0.009003	0.069885	-0.02655	-0.067749	-0.002289	-0.28778	-0.00061	-0.16937	-0.090027	-0.004578	-0.007629
40.382	0.049133	-0.002747	0.060577	0.002136	0.041046	-0.31738	0.10681	0.006714	-0.18738	-0.078888	0.017395	0.013123	0.027771	-0.20752	0.024109	-0.0177	-0.023499	0.15182	-0.13412	-0.031586	0.083771	0.009308	0.058136	-0.010529	-0.05249	-0.002136	-0.49744	-0.000763	-0.054626	-0.027313	-0.007935	0.001831
40.383	0.069885	-0.077057	-0.028992	0.024109	0.042114	-0.23132	0.010071	-0.041199	-0.1593	-0.05661	0.002594	0.00473	0.025482	0.30029	-0.037537	-0.00412	-0.026398	0.14221	-0.41138	0.075684	0.079041	0.006561	0.016632	-0.050507	-0.062714	0.017853	-0.52826	0	0.33432	-0.033569	-0.001678	-0.007782
40.384	0.060883	-0.04776	-0.15839	0.00885	0.034637	-0.066528	-0.043945	-0.021973	-0.31143	-0.050507	0.000153	0.002136	-0.018005	0.38773	-0.014954	0.000153	-0.029907	0.10544	-0.55252	0.23682	0.075989	0.010986	-0.01709	-0.063477	-0.054779	0.008392	-0.28046	-0.002441	0.37216	-0.10056	0.000153	-0.007477
40.385	0.046234	-0.055542	-0.005951	-0.002441	0.025177	-0.32761	-0.047913	-0.012207	-0.39856	-0.056458	-0.002289	0.010834	-0.058899	0.26871	0.003357	-0.004883	-0.027771	0.13138	-0.31799	0.12039	0.088348	0.02594	-0.016632	-0.044708	-0.059662	-0.001678	0.080261	0.002441	0.033569	0.007019	-0.003357	-0.006256
40.386	0.040131	-0.000763	-0.02243	-0.009155	0.018158	-0.40787	-0.053406	0.01236	-0.27969	-0.10559	-0.007477	0.007172	-0.086365	0.20889	0.019073	-0.006561	-0.020447	0.13489	-0.40375	0.041962	0.081024	0.035248	-0.058746	-0.022125	-0.029755	-0.006714	-0.17761	-0.001984	0.033264	0.063934	-0.006561	-0.010376
40.387	0.02121	-0.036316	-0.084076	-0.020752	0.00824	-0.18814	-0.066223	0.036011	-0.094452	-0.12375	-0.008545	0.010223	-0.20233	0.19684	0.00351	0.020294	0.013733	0.12039	-0.36896	-0.008698	0.082703	0.044556	-0.036011	-0.0354	-0.041809	-0.006104	-0.23041	-0.001984	0.13199	0.003662	-0.003662	-0.009613
40.388	0.011902	-0.051727	-0.011902	0.003052	-0.011597	-0.054321	-0.11581	0.037537	0.035095	-0.14389	-0.01358	-0.011444	-0.13748	0.242	-0.00885	0.054016	-0.024109	0.070343	-0.39093	0.062561	0.072784	0.058441	-0.031586	-0.04837	-0.035553	-0.001373	0.04837	-0.00473	0.08194	-0.023651	-0.002899	-0.009155
40.389	0.004272	-0.030365	0.27191	0.015411	-0.007935	-0.028381	-0.1442	0.009766	0.22415	-0.15671	-0.00946	-0.18234	-0.13611	0.25131	-0.016174	0.024567	-0.055847	0.084534	-0.53665	0.15335	0.061493	0.03891	-0.010529	-0.055389	-0.027924	-0.001068	0.57129	-0.00061	-0.35461	0.0383	-0.001678	-0.009613
40.39	-0.006714	-0.016327	0.091858	0.011292	-0.016479	0.02655	-0.14221	-0.029755	0.26184	-0.024109	0.002899	0.1413	-0.04715	0.17593	-0.036774	-0.006714	-0.050049	0.11429	-0.54764	0.19196	0.057373	0.04776	-0.027618	-0.063477	-0.016174	0.003967	0.64529	-0.002289	-0.023804	0.077667	-0.002594	-0.002441
40.391	-0.017548	-0.085907	0.08728	-0.003662	-0.028534	0.075684	-0.048981	-0.036316	0.22003	0.12817	0.002899	0.055847	-0.055389	-0.058594	-0.059204	0.006409	-0.018005	0.068665	-0.44403	0.15152	0.052948	0.025177	0.017548	-0.054932	-0.030823	-0.001526	0.44968	-0.001678	0.103	0.12665	-0.002899	0.001373
40.392	-0.010376	-0.031738	0.20905	0.016022	-0.010071	0.11658	0.001526	-0.032043	0.18494	0.1329	0.005646	0.000458	-0.15533	-0.4303	-0.062408	-0.007935	0.005493	0.10864	-0.069733	-0.093231	0.047913	0.030365	0.038757	-0.079346	-0.040741	-0.011902	-0.49103	-0.001678	0.00473	0.072479	-0.000763	-0.003052
40.393	-0.010071	0.11963	0.19974	0.038147	0.002747	0.11185	0.032959	-0.009155	0.13016	0.07019	-0.005951	0.068054	0.40985	-0.54947	0.022278	0.007477	0.027466	0.13199	0.013123	-0.079498	0.045624	0.036011	0.016327	-0.057831	-0.030823	-0.010681	-0.78888	-0.005493	-0.048065	0.071259	-0.002747	-0.005035
40.394	-0.01297	0.11322	-0.001984	-0.007782	0.023499	0.10742	0.1152	-0.012207	0.036621	0.13016	-0.00351	0.030212	0.22675	-0.26138	0.044708	-0.010529	0.044403	0.065155	-0.23544	0.007629	0.04715	0.037537	-0.003204	0.006409	-0.035553	-0.005341	-0.52811	-0.006256	0.014648	0.036926	-0.004425	0.000458
40.395	0.005188	0.1001	-0.054016	-0.028076	-0.001526	0.069733	0.1059	-0.003815	-0.088806	0.084991	0.010529	0.01709	-0.45746	-0.00885	-0.005951	-0.024109	0.059052	0.063171	-0.23682	0.052185	0.055695	0.036621	-0.009003	0.009613	-0.028229	0.002441	-0.43518	-0.003204	0.11704	-0.065918	-0.007172	0.003967
40.396	0.015869	0.1593	0.014191	-0.008087	-0.035706	0.001678	0.037231	0.006256	-0.27603	-0.098572	-0.014038	-0.25238	-0.010529	0.20172	-0.014954	0.044556	0.070953	0.041046	-0.20096	-0.023499	0.074615	0.050659	0.00824	0.029602	-0.027618	0.009918	-0.4184	0.000916	0.14191	-0.044708	-0.004883	-0.003815
40.397	0.005035	0.19638	-0.015411	0.005951	-0.050201	-0.003052	-0.028076	0.013733	-0.41046	-0.12512	-0.021057	-0.14725	0.29251	0.17471	-0.048981	0.076599	0.084686	-0.030823	-0.16281	-0.072937	0.071411	0.062408	0.007477	0.047455	-0.013123	0.002136	-0.010071	-0.00351	-0.047607	0.001984	-0.003052	0.000305
40.398	0.006409	0.20508	0.01236	-0.001526	-0.018463	0.039978	-0.019989	0.011902	-0.289	-0.14038	-0.027924	0.35996	0.26154	0.045776	-0.068665	-0.004883	0.050201	-0.030823	-0.019989	0.045471	0.066528	0.052643	0.004578	0.02243	-0.020599	0.004425	0.10742	-0.009918	-0.36728	-0.068665	-0.001373	-0.005646
40.399	-0.00412	0.22369	0.14069	0.022125	0.004272	0.12344	0.031433	0.007324	-0.14847	-0.17456	-0.039368	0.12528	0.11108	-0.02533	-0.11414	-0.017548	-0.001373	-0.013123	-0.18494	0.041199	0.075073	0.054779	0.006104	0.077515	-0.01236	0.002289	0.35706	-0.002289	-0.34286	-0.059052	-0.004578	-0.005035
40.4	-0.006256	0.1651	0.10346	0.015564	0.000763	0.19516	0.035858	0.01358	-0.18936	-0.17685	-0.016022	0.074158	-0.21423	-0.088654	-0.10803	-0.074768	-0.030975	0.037842	-0.14236	0.011749	0.065918	0.071869	0.005646	0.042572	-0.037079	0.001984	0.44632	-0.003815	-0.085602	-0.023193	-0.003357	-0.009308
40.401	-0.01358	0.027466	0.00824	0.009613	0.001526	0.24109	-0.003204	0.029602	-0.16159	-0.082855	0.01236	-0.014038	-0.4187	-0.1236	-0.034332	-0.096893	-0.050507	0.074158	-0.40848	-0.005341	0.066071	0.055237	-0.037537	0.016632	-0.0354	-0.003967	0.17975	-0.005798	0.039063	-0.053406	-0.00351	-0.009308
40.402	-0.007629	-0.12711	-0.029907	0.002289	-0.007782	0.31372	-0.081024	0.049286	-0.067444	-0.052795	-0.030518	0.050049	0.45441	-0.084839	-0.017395	0.044708	-0.047455	0.077057	-0.41718	-0.046234	0.074463	0.060883	-0.005951	-0.014191	-0.00885	-0.00061	-0.018158	-0.005035	0.044098	-0.09964	-0.000916	-0.011902
40.403	0.001373	-0.31204	-0.010986	0.004883	-0.01709	0.27054	-0.22247	0.019073	-0.077667	-0.020447	0.022736	-0.16342	0.36041	0.11673	0.039063	-0.13321	-0.021515	0.064087	-0.2861	-0.019379	0.067749	0.055695	-0.009308	0.019836	-0.035858	0.008545	0.071716	-0.003357	0.034943	-0.069427	-0.00351	-0.014648
40.404	0.007629	-0.60776	-0.11536	0.01297	0.015869	-0.26062	-0.25177	-0.016327	-0.10742	-0.17212	0.004578	0.074463	0.18723	0.12009	0.07431	-0.006714	0.039063	0.048218	-0.25024	0.014496	0.069427	0.022888	0.031738	-0.002441	-0.027924	0.001831	-0.24994	-0.002136	0.1387	-0.054779	-0.001831	-0.006256
40.405	0.008392	-0.69168	-0.21835	0.002289	0.034027	-0.39047	-0.2388	-0.029144	0.030365	-0.31708	-0.031891	0.051422	-0.15762	0.071716	0.024872	0.40497	0.076447	0.12772	-0.25421	-0.02655	0.059509	0.012207	0.000763	-0.006561	-0.036926	0.002747	-0.33218	-0.005798	0.070343	-0.037537	-0.006561	-0.012054
40.406	0.009003	-0.77347	-0.28366	0.000763	0.009918	-0.034332	-0.20874	-0.023804	0.16449	-0.10346	0.005951	0.032196	-0.42236	0.058746	-0.030365	-0.006866	0.097656	0.14694	-0.2504	-0.022125	0.054779	0.014191	0.055542	-0.038605	-0.032043	0.000763	-0.015259	-0.005646	0.061951	-0.068359	-0.001068	-0.008698
40.407	0.010376	-0.83481	-0.2478	0.010529	0.014343	0.15289	-0.1004	-0.010681	0.10925	0.071411	-0.018311	0.002136	-0.78812	-0.007324	-0.087585	-0.075989	0.11658	0.090637	-0.24002	-0.006866	0.048676	0.00824	0.052338	-0.053101	-0.0177	0.00351	0.2124	-0.002136	0.059052	-0.063171	-0.002899	-0.007019
40.408	0.01236	-0.74707	-0.19318	0.00885	0.024719	0.02533	-0.02121	-0.024872	0.045624	0.091248	0.00412	0.006104	-0.066681	-0.28717	-0.11978	0.03952	0.16769	0.10223	-0.079041	0.034637	0.058441	0.007019	0.054474	-0.0354	-0.024414	0.00473	-0.16632	-0.001068	0.034332	0.036011	0.001221	-0.006256
40.409	0.002747	-0.62775	-0.10666	0.001526	0.005341	0.09613	0.17914	0.010834	0.11993	0.14511	0.022736	0.007935	0.25711	-0.12482	-0.12665	-0.005951	0.21683	0.092163	-0.099335	-0.036774	0.03952	-0.014648	0.04715	-0.036163	-0.03952	0.002136	-0.12772	-0.003662	0.005341	0.1088	-0.001678	-0.002289
40.41	-0.001373	-0.48706	-0.015106	-0.005188	-0.009155	-0.063934	0.298	0.025787	0.13443	0.10071	-0.011749	-0.000153	0.16235	-0.019989	-0.037689	-0.03479	0.2449	0.13184	-0.051117	-0.024719	0.046539	-0.009766	0.097809	-0.063934	-0.031586	-0.006409	-0.068817	-0.002899	-0.028229	0.18127	-0.001984	-0.006256
